<mxfile host="app.diagrams.net" modified="2021-02-08T05:59:09.660Z" agent="5.0 (Windows NT 10.0; Win64; x64) AppleWebKit/537.36 (KHTML, like Gecko) Chrome/88.0.4324.104 Safari/537.36" etag="i7808T9kg3-PSXXskr8O" version="14.2.9" type="github" pages="3">
  <diagram id="AFohKQPY40r5WXe1TMgC" name="Traffic Flow">
    <mxGraphModel dx="984" dy="341" grid="1" gridSize="10" guides="1" tooltips="1" connect="1" arrows="1" fold="1" page="1" pageScale="1" pageWidth="850" pageHeight="1100" math="0" shadow="0">
      <root>
        <mxCell id="5jNsnp-f0wLotmnPxmGb-0" />
        <mxCell id="5jNsnp-f0wLotmnPxmGb-1" parent="5jNsnp-f0wLotmnPxmGb-0" />
        <mxCell id="5jNsnp-f0wLotmnPxmGb-11" style="edgeStyle=orthogonalEdgeStyle;rounded=0;orthogonalLoop=1;jettySize=auto;html=1;" parent="5jNsnp-f0wLotmnPxmGb-1" source="5jNsnp-f0wLotmnPxmGb-2" target="5jNsnp-f0wLotmnPxmGb-10" edge="1">
          <mxGeometry relative="1" as="geometry">
            <Array as="points">
              <mxPoint x="350" y="270" />
            </Array>
          </mxGeometry>
        </mxCell>
        <mxCell id="5jNsnp-f0wLotmnPxmGb-2" value="On-Premise" style="outlineConnect=0;gradientColor=none;html=1;whiteSpace=wrap;fontSize=12;fontStyle=0;shape=mxgraph.aws4.group;grIcon=mxgraph.aws4.group_on_premise;strokeColor=#AAB7B8;fillColor=none;verticalAlign=top;align=left;spacingLeft=30;fontColor=#AAB7B8;dashed=0;" parent="5jNsnp-f0wLotmnPxmGb-1" vertex="1">
          <mxGeometry x="80" y="210" width="130" height="190" as="geometry" />
        </mxCell>
        <mxCell id="5jNsnp-f0wLotmnPxmGb-3" value="" style="ellipse;shape=cloud;whiteSpace=wrap;html=1;" parent="5jNsnp-f0wLotmnPxmGb-1" vertex="1">
          <mxGeometry x="460" y="210" width="220" height="180" as="geometry" />
        </mxCell>
        <mxCell id="5jNsnp-f0wLotmnPxmGb-4" value="Artifactory" style="rounded=1;whiteSpace=wrap;html=1;" parent="5jNsnp-f0wLotmnPxmGb-1" vertex="1">
          <mxGeometry x="510" y="320" width="100" height="30" as="geometry" />
        </mxCell>
        <mxCell id="5jNsnp-f0wLotmnPxmGb-5" value="Github" style="rounded=1;whiteSpace=wrap;html=1;" parent="5jNsnp-f0wLotmnPxmGb-1" vertex="1">
          <mxGeometry x="510" y="250" width="100" height="30" as="geometry" />
        </mxCell>
        <mxCell id="5jNsnp-f0wLotmnPxmGb-6" value="Jira" style="rounded=1;whiteSpace=wrap;html=1;" parent="5jNsnp-f0wLotmnPxmGb-1" vertex="1">
          <mxGeometry x="510" y="285" width="100" height="30" as="geometry" />
        </mxCell>
        <mxCell id="5jNsnp-f0wLotmnPxmGb-7" value="Build Machine" style="rounded=1;whiteSpace=wrap;html=1;" parent="5jNsnp-f0wLotmnPxmGb-1" vertex="1">
          <mxGeometry x="95" y="249" width="100" height="30" as="geometry" />
        </mxCell>
        <mxCell id="5jNsnp-f0wLotmnPxmGb-8" value="Users" style="rounded=1;whiteSpace=wrap;html=1;" parent="5jNsnp-f0wLotmnPxmGb-1" vertex="1">
          <mxGeometry x="95" y="289" width="100" height="30" as="geometry" />
        </mxCell>
        <mxCell id="5jNsnp-f0wLotmnPxmGb-9" value="Platforms (Vault)" style="rounded=1;whiteSpace=wrap;html=1;" parent="5jNsnp-f0wLotmnPxmGb-1" vertex="1">
          <mxGeometry x="95" y="329" width="100" height="30" as="geometry" />
        </mxCell>
        <mxCell id="5jNsnp-f0wLotmnPxmGb-10" value="Internet" style="outlineConnect=0;dashed=0;verticalLabelPosition=bottom;verticalAlign=top;align=center;html=1;shape=mxgraph.aws3.internet_3;fillColor=#D2D3D3;gradientColor=none;" parent="5jNsnp-f0wLotmnPxmGb-1" vertex="1">
          <mxGeometry x="310" y="100" width="79.5" height="54" as="geometry" />
        </mxCell>
        <mxCell id="5jNsnp-f0wLotmnPxmGb-19" value="" style="ellipse;shape=cloud;whiteSpace=wrap;html=1;" parent="5jNsnp-f0wLotmnPxmGb-1" vertex="1">
          <mxGeometry x="710" y="200" width="224" height="180" as="geometry" />
        </mxCell>
        <mxCell id="5jNsnp-f0wLotmnPxmGb-20" value="Artifactory" style="rounded=1;whiteSpace=wrap;html=1;" parent="5jNsnp-f0wLotmnPxmGb-1" vertex="1">
          <mxGeometry x="764" y="310" width="100" height="30" as="geometry" />
        </mxCell>
        <mxCell id="5jNsnp-f0wLotmnPxmGb-21" value="Github" style="rounded=1;whiteSpace=wrap;html=1;" parent="5jNsnp-f0wLotmnPxmGb-1" vertex="1">
          <mxGeometry x="764" y="240" width="100" height="30" as="geometry" />
        </mxCell>
        <mxCell id="5jNsnp-f0wLotmnPxmGb-22" value="Jira" style="rounded=1;whiteSpace=wrap;html=1;" parent="5jNsnp-f0wLotmnPxmGb-1" vertex="1">
          <mxGeometry x="764" y="275" width="100" height="30" as="geometry" />
        </mxCell>
        <mxCell id="5jNsnp-f0wLotmnPxmGb-23" value="Pune" style="text;html=1;strokeColor=none;fillColor=none;align=center;verticalAlign=middle;whiteSpace=wrap;rounded=0;" parent="5jNsnp-f0wLotmnPxmGb-1" vertex="1">
          <mxGeometry x="550" y="410" width="40" height="20" as="geometry" />
        </mxCell>
        <mxCell id="5jNsnp-f0wLotmnPxmGb-24" value="Chennai&lt;br&gt;DR" style="text;html=1;strokeColor=none;fillColor=none;align=center;verticalAlign=middle;whiteSpace=wrap;rounded=0;" parent="5jNsnp-f0wLotmnPxmGb-1" vertex="1">
          <mxGeometry x="804" y="410" width="76" height="20" as="geometry" />
        </mxCell>
        <mxCell id="5jNsnp-f0wLotmnPxmGb-26" value="Traffic" style="text;html=1;strokeColor=none;fillColor=none;align=center;verticalAlign=middle;whiteSpace=wrap;rounded=0;" parent="5jNsnp-f0wLotmnPxmGb-1" vertex="1">
          <mxGeometry x="220" y="285" width="90" height="20" as="geometry" />
        </mxCell>
        <mxCell id="5jNsnp-f0wLotmnPxmGb-29" style="edgeStyle=orthogonalEdgeStyle;rounded=0;orthogonalLoop=1;jettySize=auto;html=1;" parent="5jNsnp-f0wLotmnPxmGb-1" source="5jNsnp-f0wLotmnPxmGb-27" target="5jNsnp-f0wLotmnPxmGb-10" edge="1">
          <mxGeometry relative="1" as="geometry" />
        </mxCell>
        <mxCell id="5jNsnp-f0wLotmnPxmGb-27" value="Users (WFH)" style="rounded=1;whiteSpace=wrap;html=1;" parent="5jNsnp-f0wLotmnPxmGb-1" vertex="1">
          <mxGeometry x="90" y="112" width="100" height="30" as="geometry" />
        </mxCell>
        <mxCell id="4ooKxiqg6yBXv5OgSgLr-0" value="" style="endArrow=none;dashed=1;html=1;entryX=0.091;entryY=0.722;entryDx=0;entryDy=0;entryPerimeter=0;" edge="1" parent="5jNsnp-f0wLotmnPxmGb-1" target="5jNsnp-f0wLotmnPxmGb-3">
          <mxGeometry width="50" height="50" relative="1" as="geometry">
            <mxPoint x="220" y="340" as="sourcePoint" />
            <mxPoint x="350" y="315" as="targetPoint" />
          </mxGeometry>
        </mxCell>
        <mxCell id="4ooKxiqg6yBXv5OgSgLr-1" value="ER&lt;br&gt;Data Migration&lt;br&gt;Database Synchronization" style="text;html=1;strokeColor=none;fillColor=none;align=center;verticalAlign=middle;whiteSpace=wrap;rounded=0;" vertex="1" parent="5jNsnp-f0wLotmnPxmGb-1">
          <mxGeometry x="290" y="360" width="160" height="20" as="geometry" />
        </mxCell>
        <mxCell id="4ooKxiqg6yBXv5OgSgLr-4" value="" style="endArrow=none;html=1;" edge="1" parent="5jNsnp-f0wLotmnPxmGb-1">
          <mxGeometry width="50" height="50" relative="1" as="geometry">
            <mxPoint x="370" y="270" as="sourcePoint" />
            <mxPoint x="370" y="160" as="targetPoint" />
          </mxGeometry>
        </mxCell>
        <mxCell id="4ooKxiqg6yBXv5OgSgLr-5" value="" style="endArrow=none;html=1;" edge="1" parent="5jNsnp-f0wLotmnPxmGb-1">
          <mxGeometry width="50" height="50" relative="1" as="geometry">
            <mxPoint x="370" y="270" as="sourcePoint" />
            <mxPoint x="450" y="270" as="targetPoint" />
          </mxGeometry>
        </mxCell>
        <mxCell id="4ooKxiqg6yBXv5OgSgLr-6" value="" style="endArrow=classic;startArrow=classic;html=1;exitX=0.91;exitY=0.502;exitDx=0;exitDy=0;exitPerimeter=0;" edge="1" parent="5jNsnp-f0wLotmnPxmGb-1" source="5jNsnp-f0wLotmnPxmGb-3">
          <mxGeometry width="50" height="50" relative="1" as="geometry">
            <mxPoint x="690" y="350" as="sourcePoint" />
            <mxPoint x="740" y="300" as="targetPoint" />
          </mxGeometry>
        </mxCell>
        <mxCell id="4ooKxiqg6yBXv5OgSgLr-7" value="&lt;h1&gt;&lt;font style=&quot;font-size: 11px&quot;&gt;o365 link. Dedicated BW&amp;nbsp;&lt;/font&gt;&lt;/h1&gt;" style="text;html=1;strokeColor=none;fillColor=none;spacing=5;spacingTop=-20;whiteSpace=wrap;overflow=hidden;rounded=0;align=left;" vertex="1" parent="5jNsnp-f0wLotmnPxmGb-1">
          <mxGeometry x="210" y="230" width="150" height="40" as="geometry" />
        </mxCell>
        <mxCell id="4ooKxiqg6yBXv5OgSgLr-8" value="... 20+ tools" style="rounded=1;whiteSpace=wrap;html=1;" vertex="1" parent="5jNsnp-f0wLotmnPxmGb-1">
          <mxGeometry x="510" y="359" width="100" height="30" as="geometry" />
        </mxCell>
        <mxCell id="4ooKxiqg6yBXv5OgSgLr-9" value="... 20+ tools" style="rounded=1;whiteSpace=wrap;html=1;" vertex="1" parent="5jNsnp-f0wLotmnPxmGb-1">
          <mxGeometry x="774" y="350" width="100" height="30" as="geometry" />
        </mxCell>
      </root>
    </mxGraphModel>
  </diagram>
  <diagram id="1F3IBast62D3wU1eSkES" name="Database Replication">
    <mxGraphModel dx="984" dy="341" grid="1" gridSize="10" guides="1" tooltips="1" connect="1" arrows="1" fold="1" page="1" pageScale="1" pageWidth="850" pageHeight="1100" math="0" shadow="0">
      <root>
        <mxCell id="-mMIXlZls5Y5GOYLDynr-0" />
        <mxCell id="-mMIXlZls5Y5GOYLDynr-1" parent="-mMIXlZls5Y5GOYLDynr-0" />
        <mxCell id="19FTXVC3cLq3ExrbuMUd-0" value="On-Premise" style="outlineConnect=0;gradientColor=none;html=1;whiteSpace=wrap;fontSize=12;fontStyle=0;shape=mxgraph.aws4.group;grIcon=mxgraph.aws4.group_on_premise;strokeColor=#AAB7B8;fillColor=none;verticalAlign=top;align=left;spacingLeft=30;fontColor=#AAB7B8;dashed=0;" vertex="1" parent="-mMIXlZls5Y5GOYLDynr-1">
          <mxGeometry x="70" y="100" width="130" height="270" as="geometry" />
        </mxCell>
        <mxCell id="19FTXVC3cLq3ExrbuMUd-1" value="" style="ellipse;shape=cloud;whiteSpace=wrap;html=1;" vertex="1" parent="-mMIXlZls5Y5GOYLDynr-1">
          <mxGeometry x="450" y="100" width="220" height="180" as="geometry" />
        </mxCell>
        <mxCell id="19FTXVC3cLq3ExrbuMUd-5" value="NFS&lt;br&gt;DATABASE" style="rounded=1;whiteSpace=wrap;html=1;" vertex="1" parent="-mMIXlZls5Y5GOYLDynr-1">
          <mxGeometry x="85" y="139" width="100" height="101" as="geometry" />
        </mxCell>
        <mxCell id="19FTXVC3cLq3ExrbuMUd-8" value="" style="ellipse;shape=cloud;whiteSpace=wrap;html=1;" vertex="1" parent="-mMIXlZls5Y5GOYLDynr-1">
          <mxGeometry x="700" y="90" width="224" height="180" as="geometry" />
        </mxCell>
        <mxCell id="19FTXVC3cLq3ExrbuMUd-12" value="Pune" style="text;html=1;strokeColor=none;fillColor=none;align=center;verticalAlign=middle;whiteSpace=wrap;rounded=0;" vertex="1" parent="-mMIXlZls5Y5GOYLDynr-1">
          <mxGeometry x="540" y="300" width="40" height="20" as="geometry" />
        </mxCell>
        <mxCell id="19FTXVC3cLq3ExrbuMUd-13" value="Chennai&lt;br&gt;DR" style="text;html=1;strokeColor=none;fillColor=none;align=center;verticalAlign=middle;whiteSpace=wrap;rounded=0;" vertex="1" parent="-mMIXlZls5Y5GOYLDynr-1">
          <mxGeometry x="794" y="300" width="76" height="20" as="geometry" />
        </mxCell>
        <mxCell id="19FTXVC3cLq3ExrbuMUd-15" value="" style="endArrow=none;dashed=1;html=1;entryX=0.091;entryY=0.722;entryDx=0;entryDy=0;entryPerimeter=0;" edge="1" target="19FTXVC3cLq3ExrbuMUd-1" parent="-mMIXlZls5Y5GOYLDynr-1">
          <mxGeometry width="50" height="50" relative="1" as="geometry">
            <mxPoint x="210" y="230" as="sourcePoint" />
            <mxPoint x="340" y="205" as="targetPoint" />
          </mxGeometry>
        </mxCell>
        <mxCell id="19FTXVC3cLq3ExrbuMUd-16" value="ER&lt;br&gt;Database/NFS Synchronization" style="text;html=1;strokeColor=none;fillColor=none;align=center;verticalAlign=middle;whiteSpace=wrap;rounded=0;" vertex="1" parent="-mMIXlZls5Y5GOYLDynr-1">
          <mxGeometry x="280" y="250" width="160" height="20" as="geometry" />
        </mxCell>
        <mxCell id="19FTXVC3cLq3ExrbuMUd-18" value="" style="endArrow=classic;startArrow=classic;html=1;exitX=0.91;exitY=0.502;exitDx=0;exitDy=0;exitPerimeter=0;" edge="1" source="19FTXVC3cLq3ExrbuMUd-1" parent="-mMIXlZls5Y5GOYLDynr-1">
          <mxGeometry width="50" height="50" relative="1" as="geometry">
            <mxPoint x="680" y="240" as="sourcePoint" />
            <mxPoint x="730" y="190" as="targetPoint" />
          </mxGeometry>
        </mxCell>
        <mxCell id="19FTXVC3cLq3ExrbuMUd-22" value="&lt;br&gt;Database/NFS Synchronization" style="text;html=1;strokeColor=none;fillColor=none;align=center;verticalAlign=middle;whiteSpace=wrap;rounded=0;" vertex="1" parent="-mMIXlZls5Y5GOYLDynr-1">
          <mxGeometry x="620" y="250" width="160" height="20" as="geometry" />
        </mxCell>
        <mxCell id="19FTXVC3cLq3ExrbuMUd-23" value="" style="outlineConnect=0;dashed=0;verticalLabelPosition=bottom;verticalAlign=top;align=center;html=1;shape=mxgraph.aws3.ms_sql_instance;fillColor=#2E73B8;gradientColor=none;" vertex="1" parent="-mMIXlZls5Y5GOYLDynr-1">
          <mxGeometry x="520" y="147.75" width="50" height="52.25" as="geometry" />
        </mxCell>
        <mxCell id="19FTXVC3cLq3ExrbuMUd-25" value="Postgress" style="aspect=fixed;perimeter=ellipsePerimeter;html=1;align=center;shadow=0;dashed=0;spacingTop=3;image;image=img/lib/active_directory/database.svg;" vertex="1" parent="-mMIXlZls5Y5GOYLDynr-1">
          <mxGeometry x="590" y="153" width="50" height="37" as="geometry" />
        </mxCell>
        <mxCell id="19FTXVC3cLq3ExrbuMUd-26" value="" style="shape=image;html=1;verticalAlign=top;verticalLabelPosition=bottom;labelBackgroundColor=#ffffff;imageAspect=0;aspect=fixed;image=https://cdn2.iconfinder.com/data/icons/stilllife/48x48/filesystems/gnome-fs-nfs.png" vertex="1" parent="-mMIXlZls5Y5GOYLDynr-1">
          <mxGeometry x="542" y="210" width="48" height="48" as="geometry" />
        </mxCell>
        <mxCell id="19FTXVC3cLq3ExrbuMUd-27" value="" style="outlineConnect=0;dashed=0;verticalLabelPosition=bottom;verticalAlign=top;align=center;html=1;shape=mxgraph.aws3.ms_sql_instance;fillColor=#2E73B8;gradientColor=none;" vertex="1" parent="-mMIXlZls5Y5GOYLDynr-1">
          <mxGeometry x="760" y="134.88" width="50" height="52.25" as="geometry" />
        </mxCell>
        <mxCell id="19FTXVC3cLq3ExrbuMUd-28" value="Postgress" style="aspect=fixed;perimeter=ellipsePerimeter;html=1;align=center;shadow=0;dashed=0;spacingTop=3;image;image=img/lib/active_directory/database.svg;" vertex="1" parent="-mMIXlZls5Y5GOYLDynr-1">
          <mxGeometry x="830" y="140.13" width="50" height="37" as="geometry" />
        </mxCell>
        <mxCell id="19FTXVC3cLq3ExrbuMUd-29" value="" style="shape=image;html=1;verticalAlign=top;verticalLabelPosition=bottom;labelBackgroundColor=#ffffff;imageAspect=0;aspect=fixed;image=https://cdn2.iconfinder.com/data/icons/stilllife/48x48/filesystems/gnome-fs-nfs.png" vertex="1" parent="-mMIXlZls5Y5GOYLDynr-1">
          <mxGeometry x="782" y="197.13" width="48" height="48" as="geometry" />
        </mxCell>
        <mxCell id="19FTXVC3cLq3ExrbuMUd-30" value="" style="outlineConnect=0;dashed=0;verticalLabelPosition=bottom;verticalAlign=top;align=center;html=1;shape=mxgraph.aws3.ms_sql_instance;fillColor=#2E73B8;gradientColor=none;" vertex="1" parent="-mMIXlZls5Y5GOYLDynr-1">
          <mxGeometry x="80" y="250" width="50" height="52.25" as="geometry" />
        </mxCell>
        <mxCell id="19FTXVC3cLq3ExrbuMUd-31" value="Postgress" style="aspect=fixed;perimeter=ellipsePerimeter;html=1;align=center;shadow=0;dashed=0;spacingTop=3;image;image=img/lib/active_directory/database.svg;" vertex="1" parent="-mMIXlZls5Y5GOYLDynr-1">
          <mxGeometry x="150" y="255.25" width="50" height="37" as="geometry" />
        </mxCell>
        <mxCell id="19FTXVC3cLq3ExrbuMUd-32" value="" style="shape=image;html=1;verticalAlign=top;verticalLabelPosition=bottom;labelBackgroundColor=#ffffff;imageAspect=0;aspect=fixed;image=https://cdn2.iconfinder.com/data/icons/stilllife/48x48/filesystems/gnome-fs-nfs.png" vertex="1" parent="-mMIXlZls5Y5GOYLDynr-1">
          <mxGeometry x="102" y="312.25" width="48" height="48" as="geometry" />
        </mxCell>
      </root>
    </mxGraphModel>
  </diagram>
  <diagram id="-mpTUpwOfjJxbfOY1xBI" name="Artifactory Replication">
    <mxGraphModel dx="984" dy="393" grid="1" gridSize="10" guides="1" tooltips="1" connect="1" arrows="1" fold="1" page="1" pageScale="1" pageWidth="850" pageHeight="1100" math="0" shadow="0">
      <root>
        <mxCell id="qzO34xo-_VnNUifp8KF_-0" />
        <mxCell id="qzO34xo-_VnNUifp8KF_-1" parent="qzO34xo-_VnNUifp8KF_-0" />
      </root>
    </mxGraphModel>
  </diagram>
</mxfile>
